<svg width="78" height="78" viewBox="0 0 78 78" fill="none" xmlns="http://www.w3.org/2000/svg">
<path d="M65.8467 66.5185C73.1255 59.2118 77.206 49.3148 77.1919 39.0016C77.1842 38.365 76.9261 37.7571 76.4731 37.3098C76.0202 36.8621 75.4094 36.6115 74.7728 36.6115C74.1359 36.6115 73.5252 36.8621 73.0722 37.3098C72.6192 37.7571 72.3612 38.365 72.3534 39.0016C72.3636 48.0396 68.7859 56.7126 62.4063 63.1148C59.3093 66.2943 55.6069 68.8214 51.5172 70.5471C47.4278 72.2725 43.0342 73.1615 38.5956 73.1615C34.157 73.1615 29.7634 72.2725 25.6739 70.5471C21.5845 68.8214 17.882 66.2943 14.785 63.1148C8.41396 56.7063 4.83793 48.0368 4.83793 39.0002C4.83793 29.9633 8.41396 21.2939 14.785 14.8852C17.864 11.7301 21.5386 9.21763 25.5959 7.49338C29.6532 5.76916 34.0125 4.86748 38.4209 4.84064C39.3621 4.87012 40.2546 5.26621 40.9081 5.94438C41.5616 6.62251 41.9242 7.52914 41.9185 8.47086C41.9132 9.41258 41.5401 10.3149 40.8788 10.9854C40.2175 11.656 39.3204 12.0416 38.3789 12.0601C38.2917 12.0603 38.2045 12.0651 38.118 12.0746C31.411 12.2906 25.0472 15.091 20.3572 19.8904C15.4041 24.8764 12.6243 31.6191 12.6243 38.6471C12.6243 45.6753 15.4041 52.4178 20.3572 57.4039C22.7769 59.8826 25.6679 61.8523 28.8601 63.197C32.0523 64.5418 35.4814 65.2345 38.9451 65.2345C42.4089 65.2345 45.8381 64.5418 49.0303 63.197C52.2222 61.8523 55.1133 59.8826 57.5331 57.4039C62.4938 52.4231 65.2748 45.677 65.2649 38.6471C65.2751 37.54 65.0658 36.4413 64.6492 35.4153C64.2322 34.3895 63.6165 33.4563 62.837 32.6697C62.0575 31.8831 61.13 31.2587 60.1079 30.8326C59.0858 30.4065 57.9896 30.1871 56.8821 30.1871C55.7746 30.1871 54.6784 30.4065 53.6563 30.8326C52.6342 31.2587 51.7068 31.8831 50.9273 32.6697C50.1477 33.4563 49.532 34.3895 49.1151 35.4153C48.6985 36.4413 48.4891 37.54 48.4993 38.6471C48.4993 38.7177 48.5039 38.7841 48.5096 38.8519C48.5039 38.9197 48.4993 38.9875 48.4993 39.0567C48.5152 40.9871 47.9571 42.8788 46.8958 44.4918C45.8349 46.1046 44.3185 47.3657 42.5395 48.1155C40.7605 48.8651 38.7986 49.0695 36.9035 48.7026C35.008 48.3355 33.2644 47.414 31.8936 46.0544C30.5229 44.6948 29.587 42.9589 29.2045 41.0666C28.8221 39.1742 29.0103 37.2109 29.7455 35.4259C30.4806 33.6406 31.7294 32.1141 33.3335 31.0398C34.9376 29.9656 36.8247 29.392 38.7552 29.392C39.0754 29.3959 39.3932 29.3361 39.6901 29.2163C39.987 29.0964 40.2571 28.9189 40.4848 28.6938C40.7125 28.4688 40.8936 28.2008 41.0168 27.9053C41.1404 27.6099 41.204 27.2929 41.204 26.9727C41.204 26.6525 41.1404 26.3355 41.0168 26.0401C40.8936 25.7446 40.7125 25.4766 40.4848 25.2516C40.2571 25.0266 39.987 24.849 39.6901 24.7291C39.3932 24.6093 39.0754 24.5496 38.7552 24.5534C35.8902 24.5693 33.094 25.4335 30.7195 27.0368C28.345 28.6401 26.4985 30.9108 25.4131 33.5624C24.3277 36.2139 24.052 39.1276 24.6207 41.9358C25.1894 44.7439 26.5771 47.3205 28.6087 49.341C30.6402 51.3611 33.2247 52.7345 36.036 53.2877C38.847 53.8406 41.7593 53.5486 44.4047 52.4485C47.0501 51.3484 49.3106 49.4896 50.9008 47.1062C52.4909 44.7227 53.3393 41.9217 53.3393 39.0567C53.3393 38.9861 53.3347 38.9197 53.329 38.8519C53.3347 38.7841 53.3393 38.7163 53.3393 38.6471C53.3297 38.1758 53.4145 37.7073 53.5885 37.2688C53.7622 36.8307 54.0221 36.4314 54.3518 36.0949C54.6819 35.7581 55.0759 35.4905 55.5105 35.308C55.9451 35.1255 56.4122 35.0314 56.8835 35.0314C57.3549 35.0314 57.8219 35.1255 58.2565 35.308C58.6911 35.4905 59.0851 35.7581 59.4152 36.0949C59.745 36.4314 60.0048 36.8307 60.1785 37.2688C60.3526 37.7073 60.4373 38.1758 60.4278 38.6471C60.4341 44.4025 58.1559 49.9249 54.0934 54.0015C52.1237 56.0252 49.7686 57.6334 47.1669 58.7317C44.5653 59.83 41.7699 60.3956 38.9459 60.3956C36.1222 60.3956 33.3268 59.83 30.7252 58.7317C28.1236 57.6334 25.7684 56.0252 23.7987 54.0015C19.7416 49.9214 17.4643 44.4011 17.4643 38.6471C17.4643 32.8932 19.7416 27.373 23.7987 23.2927C25.77 21.2717 28.1252 19.6649 30.7261 18.5669C33.3271 17.4689 36.1211 16.9017 38.9444 16.8987C39.1616 16.8981 39.3776 16.8682 39.587 16.8097C41.6467 16.4938 43.5168 15.4286 44.8393 13.8185C46.1618 12.2084 46.8432 10.1667 46.7528 8.08505C46.6624 6.00341 45.8063 4.02846 44.3493 2.53905C42.8922 1.04963 40.9367 0.150614 38.8576 0.0144751C38.7707 0.0050152 38.6832 0.000183267 38.5956 0C38.5469 0 38.4985 0 38.4498 0C38.4258 0 38.4025 0 38.3792 0C38.3559 0 38.3319 0.00282244 38.3086 0.00352854C33.2791 0.0430826 28.3071 1.07782 23.6794 3.04808C19.0517 5.01833 14.8597 7.88515 11.3452 11.4832C4.07845 18.7976 0 28.6895 0 39.0002C0 49.3106 4.07845 59.2023 11.3452 66.5168C14.8922 70.1514 19.1305 73.04 23.8105 75.0118C28.4905 76.9839 33.5178 78 38.5963 78C43.6749 78 48.702 76.9839 53.3824 75.0118C58.0624 73.04 62.3004 70.1514 65.8474 66.5168L65.8467 66.5185Z" fill="url(#paint0_linear_23_22473)"/>
<defs>
<linearGradient id="paint0_linear_23_22473" x1="0" y1="39.0973" x2="77.192" y2="39.0973" gradientUnits="userSpaceOnUse">
<stop stop-color="#009FFF"/>
<stop offset="1" stop-color="#0079FF"/>
</linearGradient>
</defs>
</svg>
